<?xml version="1.0" encoding="UTF-8"?>
<svg xmlns="http://www.w3.org/2000/svg" xmlns:xlink="http://www.w3.org/1999/xlink" width="16px" height="16px" viewBox="0 0 16 16" version="1.1">
<g id="surface1">
<path style=" stroke:none;fill:#fff;fill:#fff;fill:#fff;" d="M 15.597656 3.460938 L 14.050781 1.917969 C 13.804688 1.667969 13.46875 1.515625 13.089844 1.515625 C 12.707031 1.515625 12.394531 1.648438 12.125 1.917969 L 5.894531 8.167969 L 3.875 6.152344 C 3.585938 5.859375 3.203125 5.703125 2.777344 5.703125 C 2.375 5.703125 1.972656 5.859375 1.679688 6.152344 L 0.449219 7.382812 C 0.15625 7.675781 0 8.054688 0 8.480469 C 0 8.90625 0.15625 9.289062 0.449219 9.578125 L 4.953125 14.082031 C 5.199219 14.332031 5.535156 14.484375 5.914062 14.484375 C 6.296875 14.484375 6.609375 14.351562 6.878906 14.082031 L 15.597656 5.367188 C 15.84375 5.121094 16 4.785156 16 4.402344 C 16 4.023438 15.84375 3.707031 15.597656 3.460938 Z M 14.992188 4.785156 L 6.296875 13.5 C 6.097656 13.703125 5.761719 13.703125 5.558594 13.5 L 1.050781 8.972656 C 0.917969 8.839844 0.851562 8.660156 0.851562 8.457031 C 0.851562 8.257812 0.917969 8.078125 1.050781 7.945312 L 2.285156 6.710938 C 2.417969 6.578125 2.597656 6.511719 2.800781 6.511719 C 3 6.511719 3.179688 6.578125 3.3125 6.710938 L 5.578125 9.042969 C 5.734375 9.199219 6.003906 9.199219 6.160156 9.042969 L 12.703125 2.496094 C 12.90625 2.296875 13.242188 2.296875 13.445312 2.496094 L 14.988281 4.042969 C 15.078125 4.132812 15.148438 4.265625 15.148438 4.402344 C 15.148438 4.558594 15.105469 4.695312 14.992188 4.785156 Z M 14.992188 4.785156 "/>
</g>
</svg>
